<mxfile host="app.diagrams.net" modified="2023-08-01T23:17:28.063Z" agent="Mozilla/5.0 (Windows NT 10.0; Win64; x64) AppleWebKit/537.36 (KHTML, like Gecko) Chrome/115.0.0.0 Safari/537.36" etag="rF6FBlaWTZmnXLvdyFas" version="21.6.3" type="github">
  <diagram name="Page-1" id="mMklTSSEGzcAq0hJC81x">
    <mxGraphModel dx="3475" dy="1513" grid="1" gridSize="10" guides="1" tooltips="1" connect="1" arrows="1" fold="1" page="1" pageScale="1" pageWidth="850" pageHeight="1100" math="0" shadow="0">
      <root>
        <mxCell id="0" />
        <mxCell id="1" parent="0" />
        <mxCell id="jVgVaskzTy7yyPrUn3Fr-1" value="" style="rounded=1;whiteSpace=wrap;html=1;fillColor=#dae8fc;strokeColor=#6c8ebf;" vertex="1" parent="1">
          <mxGeometry x="-790" y="990" width="1970" height="970" as="geometry" />
        </mxCell>
        <mxCell id="jVgVaskzTy7yyPrUn3Fr-2" value="Sector" style="swimlane;html=1;fontStyle=1;align=center;verticalAlign=top;childLayout=stackLayout;horizontal=1;startSize=26;horizontalStack=0;resizeParent=1;resizeLast=0;collapsible=1;marginBottom=0;swimlaneFillColor=#ffffff;rounded=0;shadow=1;comic=0;labelBackgroundColor=none;strokeWidth=1;fillColor=none;fontFamily=Verdana;fontSize=12" vertex="1" parent="1">
          <mxGeometry x="-180" y="1770" width="120" height="140" as="geometry">
            <mxRectangle x="370" y="160" width="90" height="30" as="alternateBounds" />
          </mxGeometry>
        </mxCell>
        <mxCell id="jVgVaskzTy7yyPrUn3Fr-3" value="- local: Local" style="text;html=1;strokeColor=none;fillColor=none;align=left;verticalAlign=top;spacingLeft=4;spacingRight=4;whiteSpace=wrap;overflow=hidden;rotatable=0;points=[[0,0.5],[1,0.5]];portConstraint=eastwest;shadow=1;" vertex="1" parent="jVgVaskzTy7yyPrUn3Fr-2">
          <mxGeometry y="26" width="120" height="26" as="geometry" />
        </mxCell>
        <mxCell id="jVgVaskzTy7yyPrUn3Fr-4" value="- descripcion: string" style="text;html=1;strokeColor=none;fillColor=none;align=left;verticalAlign=top;spacingLeft=4;spacingRight=4;whiteSpace=wrap;overflow=hidden;rotatable=0;points=[[0,0.5],[1,0.5]];portConstraint=eastwest;shadow=1;" vertex="1" parent="jVgVaskzTy7yyPrUn3Fr-2">
          <mxGeometry y="52" width="120" height="26" as="geometry" />
        </mxCell>
        <mxCell id="jVgVaskzTy7yyPrUn3Fr-5" value="- codigo: string" style="text;html=1;strokeColor=none;fillColor=none;align=left;verticalAlign=top;spacingLeft=4;spacingRight=4;whiteSpace=wrap;overflow=hidden;rotatable=0;points=[[0,0.5],[1,0.5]];portConstraint=eastwest;shadow=1;" vertex="1" parent="jVgVaskzTy7yyPrUn3Fr-2">
          <mxGeometry y="78" width="120" height="26" as="geometry" />
        </mxCell>
        <mxCell id="jVgVaskzTy7yyPrUn3Fr-6" value="" style="line;html=1;strokeWidth=1;fillColor=none;align=left;verticalAlign=middle;spacingTop=-1;spacingLeft=3;spacingRight=3;rotatable=0;labelPosition=right;points=[];portConstraint=eastwest;shadow=1;" vertex="1" parent="jVgVaskzTy7yyPrUn3Fr-2">
          <mxGeometry y="104" width="120" height="8" as="geometry" />
        </mxCell>
        <mxCell id="jVgVaskzTy7yyPrUn3Fr-7" value="+ asociarLocal()" style="text;html=1;strokeColor=none;fillColor=none;align=left;verticalAlign=top;spacingLeft=4;spacingRight=4;whiteSpace=wrap;overflow=hidden;rotatable=0;points=[[0,0.5],[1,0.5]];portConstraint=eastwest;shadow=1;" vertex="1" parent="jVgVaskzTy7yyPrUn3Fr-2">
          <mxGeometry y="112" width="120" height="26" as="geometry" />
        </mxCell>
        <mxCell id="jVgVaskzTy7yyPrUn3Fr-8" value="Trabajador" style="swimlane;html=1;fontStyle=1;align=center;verticalAlign=top;childLayout=stackLayout;horizontal=1;startSize=26;horizontalStack=0;resizeParent=1;resizeLast=0;collapsible=1;marginBottom=0;swimlaneFillColor=#ffffff;rounded=0;shadow=1;comic=0;labelBackgroundColor=none;strokeWidth=1;fillColor=none;fontFamily=Verdana;fontSize=12" vertex="1" parent="1">
          <mxGeometry x="-190" y="1360" width="290" height="324" as="geometry">
            <mxRectangle x="600" y="160" width="110" height="30" as="alternateBounds" />
          </mxGeometry>
        </mxCell>
        <mxCell id="jVgVaskzTy7yyPrUn3Fr-9" value="+ nombre: string" style="text;html=1;strokeColor=none;fillColor=none;align=left;verticalAlign=top;spacingLeft=4;spacingRight=4;whiteSpace=wrap;overflow=hidden;rotatable=0;points=[[0,0.5],[1,0.5]];portConstraint=eastwest;shadow=1;" vertex="1" parent="jVgVaskzTy7yyPrUn3Fr-8">
          <mxGeometry y="26" width="290" height="26" as="geometry" />
        </mxCell>
        <mxCell id="jVgVaskzTy7yyPrUn3Fr-10" value="+ dni: string" style="text;html=1;strokeColor=none;fillColor=none;align=left;verticalAlign=top;spacingLeft=4;spacingRight=4;whiteSpace=wrap;overflow=hidden;rotatable=0;points=[[0,0.5],[1,0.5]];portConstraint=eastwest;shadow=1;" vertex="1" parent="jVgVaskzTy7yyPrUn3Fr-8">
          <mxGeometry y="52" width="290" height="26" as="geometry" />
        </mxCell>
        <mxCell id="jVgVaskzTy7yyPrUn3Fr-11" value="+ enTurno: bool" style="text;html=1;strokeColor=none;fillColor=none;align=left;verticalAlign=top;spacingLeft=4;spacingRight=4;whiteSpace=wrap;overflow=hidden;rotatable=0;points=[[0,0.5],[1,0.5]];portConstraint=eastwest;shadow=1;" vertex="1" parent="jVgVaskzTy7yyPrUn3Fr-8">
          <mxGeometry y="78" width="290" height="26" as="geometry" />
        </mxCell>
        <mxCell id="jVgVaskzTy7yyPrUn3Fr-12" value="+ sector: Sector" style="text;html=1;strokeColor=none;fillColor=none;align=left;verticalAlign=top;spacingLeft=4;spacingRight=4;whiteSpace=wrap;overflow=hidden;rotatable=0;points=[[0,0.5],[1,0.5]];portConstraint=eastwest;shadow=1;" vertex="1" parent="jVgVaskzTy7yyPrUn3Fr-8">
          <mxGeometry y="104" width="290" height="26" as="geometry" />
        </mxCell>
        <mxCell id="jVgVaskzTy7yyPrUn3Fr-13" value="+ turnos: Turno [ ]" style="text;html=1;strokeColor=none;fillColor=none;align=left;verticalAlign=top;spacingLeft=4;spacingRight=4;whiteSpace=wrap;overflow=hidden;rotatable=0;points=[[0,0.5],[1,0.5]];portConstraint=eastwest;shadow=1;" vertex="1" parent="jVgVaskzTy7yyPrUn3Fr-8">
          <mxGeometry y="130" width="290" height="26" as="geometry" />
        </mxCell>
        <mxCell id="jVgVaskzTy7yyPrUn3Fr-14" value="" style="line;html=1;strokeWidth=1;fillColor=none;align=left;verticalAlign=middle;spacingTop=-1;spacingLeft=3;spacingRight=3;rotatable=0;labelPosition=right;points=[];portConstraint=eastwest;shadow=1;" vertex="1" parent="jVgVaskzTy7yyPrUn3Fr-8">
          <mxGeometry y="156" width="290" height="8" as="geometry" />
        </mxCell>
        <mxCell id="jVgVaskzTy7yyPrUn3Fr-15" value="+ abrirTurno(): void" style="text;html=1;strokeColor=none;fillColor=none;align=left;verticalAlign=top;spacingLeft=4;spacingRight=4;whiteSpace=wrap;overflow=hidden;rotatable=0;points=[[0,0.5],[1,0.5]];portConstraint=eastwest;shadow=1;" vertex="1" parent="jVgVaskzTy7yyPrUn3Fr-8">
          <mxGeometry y="164" width="290" height="26" as="geometry" />
        </mxCell>
        <mxCell id="jVgVaskzTy7yyPrUn3Fr-16" value="+ cerrarTurno(): void" style="text;html=1;strokeColor=none;fillColor=none;align=left;verticalAlign=top;spacingLeft=4;spacingRight=4;whiteSpace=wrap;overflow=hidden;rotatable=0;points=[[0,0.5],[1,0.5]];portConstraint=eastwest;shadow=1;" vertex="1" parent="jVgVaskzTy7yyPrUn3Fr-8">
          <mxGeometry y="190" width="290" height="26" as="geometry" />
        </mxCell>
        <mxCell id="jVgVaskzTy7yyPrUn3Fr-17" value="+ crearMensaje(): void" style="text;html=1;strokeColor=none;fillColor=none;align=left;verticalAlign=top;spacingLeft=4;spacingRight=4;whiteSpace=wrap;overflow=hidden;rotatable=0;points=[[0,0.5],[1,0.5]];portConstraint=eastwest;shadow=1;" vertex="1" parent="jVgVaskzTy7yyPrUn3Fr-8">
          <mxGeometry y="216" width="290" height="26" as="geometry" />
        </mxCell>
        <mxCell id="jVgVaskzTy7yyPrUn3Fr-18" value="+ enviarMensaje(): void" style="text;html=1;strokeColor=none;fillColor=none;align=left;verticalAlign=top;spacingLeft=4;spacingRight=4;whiteSpace=wrap;overflow=hidden;rotatable=0;points=[[0,0.5],[1,0.5]];portConstraint=eastwest;shadow=1;" vertex="1" parent="jVgVaskzTy7yyPrUn3Fr-8">
          <mxGeometry y="242" width="290" height="26" as="geometry" />
        </mxCell>
        <mxCell id="jVgVaskzTy7yyPrUn3Fr-19" value="+ recibirMensaje(): void" style="text;html=1;strokeColor=none;fillColor=none;align=left;verticalAlign=top;spacingLeft=4;spacingRight=4;whiteSpace=wrap;overflow=hidden;rotatable=0;points=[[0,0.5],[1,0.5]];portConstraint=eastwest;shadow=1;" vertex="1" parent="jVgVaskzTy7yyPrUn3Fr-8">
          <mxGeometry y="268" width="290" height="28" as="geometry" />
        </mxCell>
        <mxCell id="jVgVaskzTy7yyPrUn3Fr-20" value="+ accionarMensaje(): void" style="text;html=1;strokeColor=none;fillColor=none;align=left;verticalAlign=top;spacingLeft=4;spacingRight=4;whiteSpace=wrap;overflow=hidden;rotatable=0;points=[[0,0.5],[1,0.5]];portConstraint=eastwest;shadow=1;" vertex="1" parent="jVgVaskzTy7yyPrUn3Fr-8">
          <mxGeometry y="296" width="290" height="28" as="geometry" />
        </mxCell>
        <mxCell id="jVgVaskzTy7yyPrUn3Fr-21" value="Mensaje" style="swimlane;html=1;fontStyle=1;align=center;verticalAlign=top;childLayout=stackLayout;horizontal=1;startSize=26;horizontalStack=0;resizeParent=1;resizeLast=0;collapsible=1;marginBottom=0;swimlaneFillColor=#ffffff;rounded=0;shadow=1;comic=0;labelBackgroundColor=none;strokeWidth=1;fillColor=none;fontFamily=Verdana;fontSize=12" vertex="1" parent="1">
          <mxGeometry x="200" y="1280" width="250" height="186" as="geometry" />
        </mxCell>
        <mxCell id="jVgVaskzTy7yyPrUn3Fr-22" value="+ codigo: string" style="text;html=1;strokeColor=none;fillColor=none;align=left;verticalAlign=top;spacingLeft=4;spacingRight=4;whiteSpace=wrap;overflow=hidden;rotatable=0;points=[[0,0.5],[1,0.5]];portConstraint=eastwest;shadow=1;" vertex="1" parent="jVgVaskzTy7yyPrUn3Fr-21">
          <mxGeometry y="26" width="250" height="26" as="geometry" />
        </mxCell>
        <mxCell id="jVgVaskzTy7yyPrUn3Fr-23" value="+ emisor: Empleado" style="text;html=1;strokeColor=none;fillColor=none;align=left;verticalAlign=top;spacingLeft=4;spacingRight=4;whiteSpace=wrap;overflow=hidden;rotatable=0;points=[[0,0.5],[1,0.5]];portConstraint=eastwest;shadow=1;" vertex="1" parent="jVgVaskzTy7yyPrUn3Fr-21">
          <mxGeometry y="52" width="250" height="26" as="geometry" />
        </mxCell>
        <mxCell id="jVgVaskzTy7yyPrUn3Fr-24" value="+ lectores: Empleado [ ]&amp;nbsp;" style="text;html=1;strokeColor=none;fillColor=none;align=left;verticalAlign=top;spacingLeft=4;spacingRight=4;whiteSpace=wrap;overflow=hidden;rotatable=0;points=[[0,0.5],[1,0.5]];portConstraint=eastwest;shadow=1;" vertex="1" parent="jVgVaskzTy7yyPrUn3Fr-21">
          <mxGeometry y="78" width="250" height="26" as="geometry" />
        </mxCell>
        <mxCell id="jVgVaskzTy7yyPrUn3Fr-25" value="+ actuadores: Empleado [ ]&amp;nbsp;" style="text;html=1;strokeColor=none;fillColor=none;align=left;verticalAlign=top;spacingLeft=4;spacingRight=4;whiteSpace=wrap;overflow=hidden;rotatable=0;points=[[0,0.5],[1,0.5]];portConstraint=eastwest;shadow=1;" vertex="1" parent="jVgVaskzTy7yyPrUn3Fr-21">
          <mxGeometry y="104" width="250" height="26" as="geometry" />
        </mxCell>
        <mxCell id="jVgVaskzTy7yyPrUn3Fr-26" value="+ asunto: IEnviable" style="text;html=1;strokeColor=none;fillColor=none;align=left;verticalAlign=top;spacingLeft=4;spacingRight=4;whiteSpace=wrap;overflow=hidden;rotatable=0;points=[[0,0.5],[1,0.5]];portConstraint=eastwest;shadow=1;" vertex="1" parent="jVgVaskzTy7yyPrUn3Fr-21">
          <mxGeometry y="130" width="250" height="26" as="geometry" />
        </mxCell>
        <mxCell id="jVgVaskzTy7yyPrUn3Fr-27" value="" style="line;html=1;strokeWidth=1;align=left;verticalAlign=middle;spacingTop=-1;spacingLeft=3;spacingRight=3;rotatable=0;labelPosition=right;points=[];portConstraint=eastwest;shadow=1;" vertex="1" parent="jVgVaskzTy7yyPrUn3Fr-21">
          <mxGeometry y="156" width="250" height="8" as="geometry" />
        </mxCell>
        <mxCell id="jVgVaskzTy7yyPrUn3Fr-28" value="+ metodo(): void" style="text;html=1;strokeColor=none;fillColor=none;align=left;verticalAlign=top;spacingLeft=4;spacingRight=4;whiteSpace=wrap;overflow=hidden;rotatable=0;points=[[0,0.5],[1,0.5]];portConstraint=eastwest;shadow=1;" vertex="1" parent="jVgVaskzTy7yyPrUn3Fr-21">
          <mxGeometry y="164" width="250" height="22" as="geometry" />
        </mxCell>
        <mxCell id="jVgVaskzTy7yyPrUn3Fr-29" value="Industria" style="swimlane;html=1;fontStyle=1;align=center;verticalAlign=top;childLayout=stackLayout;horizontal=1;startSize=26;horizontalStack=0;resizeParent=1;resizeLast=0;collapsible=1;marginBottom=0;swimlaneFillColor=#ffffff;rounded=0;shadow=0;comic=0;labelBackgroundColor=none;strokeWidth=1;fillColor=none;fontFamily=Verdana;fontSize=12" vertex="1" parent="1">
          <mxGeometry x="-430" y="1010" width="260" height="265" as="geometry">
            <mxRectangle x="370" y="160" width="90" height="30" as="alternateBounds" />
          </mxGeometry>
        </mxCell>
        <mxCell id="jVgVaskzTy7yyPrUn3Fr-30" value="- empleados: Empleado [ ]" style="text;html=1;strokeColor=none;fillColor=none;align=left;verticalAlign=top;spacingLeft=4;spacingRight=4;whiteSpace=wrap;overflow=hidden;rotatable=0;points=[[0,0.5],[1,0.5]];portConstraint=eastwest;" vertex="1" parent="jVgVaskzTy7yyPrUn3Fr-29">
          <mxGeometry y="26" width="260" height="26" as="geometry" />
        </mxCell>
        <mxCell id="jVgVaskzTy7yyPrUn3Fr-31" value="- locales: Local [ ]" style="text;html=1;strokeColor=none;fillColor=none;align=left;verticalAlign=top;spacingLeft=4;spacingRight=4;whiteSpace=wrap;overflow=hidden;rotatable=0;points=[[0,0.5],[1,0.5]];portConstraint=eastwest;" vertex="1" parent="jVgVaskzTy7yyPrUn3Fr-29">
          <mxGeometry y="52" width="260" height="26" as="geometry" />
        </mxCell>
        <mxCell id="jVgVaskzTy7yyPrUn3Fr-32" value="- sectores: Sectores [ ]" style="text;html=1;strokeColor=none;fillColor=none;align=left;verticalAlign=top;spacingLeft=4;spacingRight=4;whiteSpace=wrap;overflow=hidden;rotatable=0;points=[[0,0.5],[1,0.5]];portConstraint=eastwest;" vertex="1" parent="jVgVaskzTy7yyPrUn3Fr-29">
          <mxGeometry y="78" width="260" height="26" as="geometry" />
        </mxCell>
        <mxCell id="jVgVaskzTy7yyPrUn3Fr-33" value="- procesos: Proceso [ ]" style="text;html=1;strokeColor=none;fillColor=none;align=left;verticalAlign=top;spacingLeft=4;spacingRight=4;whiteSpace=wrap;overflow=hidden;rotatable=0;points=[[0,0.5],[1,0.5]];portConstraint=eastwest;" vertex="1" parent="jVgVaskzTy7yyPrUn3Fr-29">
          <mxGeometry y="104" width="260" height="26" as="geometry" />
        </mxCell>
        <mxCell id="jVgVaskzTy7yyPrUn3Fr-34" value="- enviables: IEnviable [ ]" style="text;html=1;strokeColor=none;fillColor=none;align=left;verticalAlign=top;spacingLeft=4;spacingRight=4;whiteSpace=wrap;overflow=hidden;rotatable=0;points=[[0,0.5],[1,0.5]];portConstraint=eastwest;" vertex="1" parent="jVgVaskzTy7yyPrUn3Fr-29">
          <mxGeometry y="130" width="260" height="26" as="geometry" />
        </mxCell>
        <mxCell id="jVgVaskzTy7yyPrUn3Fr-35" value="" style="line;html=1;strokeWidth=1;fillColor=none;align=left;verticalAlign=middle;spacingTop=-1;spacingLeft=3;spacingRight=3;rotatable=0;labelPosition=right;points=[];portConstraint=eastwest;" vertex="1" parent="jVgVaskzTy7yyPrUn3Fr-29">
          <mxGeometry y="156" width="260" height="8" as="geometry" />
        </mxCell>
        <mxCell id="jVgVaskzTy7yyPrUn3Fr-36" value="+ obtenerEmpleados(): Empleado [ ]" style="text;html=1;strokeColor=none;fillColor=none;align=left;verticalAlign=top;spacingLeft=4;spacingRight=4;whiteSpace=wrap;overflow=hidden;rotatable=0;points=[[0,0.5],[1,0.5]];portConstraint=eastwest;" vertex="1" parent="jVgVaskzTy7yyPrUn3Fr-29">
          <mxGeometry y="164" width="260" height="26" as="geometry" />
        </mxCell>
        <mxCell id="jVgVaskzTy7yyPrUn3Fr-37" value="+ obtenerEmpleadoPorId(int): Empleado" style="text;html=1;strokeColor=none;fillColor=none;align=left;verticalAlign=top;spacingLeft=4;spacingRight=4;whiteSpace=wrap;overflow=hidden;rotatable=0;points=[[0,0.5],[1,0.5]];portConstraint=eastwest;" vertex="1" parent="jVgVaskzTy7yyPrUn3Fr-29">
          <mxGeometry y="190" width="260" height="25" as="geometry" />
        </mxCell>
        <mxCell id="jVgVaskzTy7yyPrUn3Fr-38" value="+ añadirEmpleado(Empleado): Empleado" style="text;html=1;strokeColor=none;fillColor=none;align=left;verticalAlign=top;spacingLeft=4;spacingRight=4;whiteSpace=wrap;overflow=hidden;rotatable=0;points=[[0,0.5],[1,0.5]];portConstraint=eastwest;" vertex="1" parent="jVgVaskzTy7yyPrUn3Fr-29">
          <mxGeometry y="215" width="260" height="25" as="geometry" />
        </mxCell>
        <mxCell id="jVgVaskzTy7yyPrUn3Fr-39" value="+ borrarEmpleado(Empleado): Empleado" style="text;html=1;strokeColor=none;fillColor=none;align=left;verticalAlign=top;spacingLeft=4;spacingRight=4;whiteSpace=wrap;overflow=hidden;rotatable=0;points=[[0,0.5],[1,0.5]];portConstraint=eastwest;" vertex="1" parent="jVgVaskzTy7yyPrUn3Fr-29">
          <mxGeometry y="240" width="260" height="25" as="geometry" />
        </mxCell>
        <mxCell id="jVgVaskzTy7yyPrUn3Fr-40" value="Local" style="swimlane;html=1;fontStyle=1;align=center;verticalAlign=top;childLayout=stackLayout;horizontal=1;startSize=26;horizontalStack=0;resizeParent=1;resizeLast=0;collapsible=1;marginBottom=0;swimlaneFillColor=#ffffff;rounded=0;shadow=1;comic=0;labelBackgroundColor=none;strokeWidth=1;fillColor=none;fontFamily=Verdana;fontSize=12" vertex="1" parent="1">
          <mxGeometry y="1790" width="120" height="114" as="geometry">
            <mxRectangle x="600" y="20" width="80" height="30" as="alternateBounds" />
          </mxGeometry>
        </mxCell>
        <mxCell id="jVgVaskzTy7yyPrUn3Fr-41" value="+ descripcion: string" style="text;html=1;strokeColor=none;fillColor=none;align=left;verticalAlign=top;spacingLeft=4;spacingRight=4;whiteSpace=wrap;overflow=hidden;rotatable=0;points=[[0,0.5],[1,0.5]];portConstraint=eastwest;labelBackgroundColor=none;shadow=1;" vertex="1" parent="jVgVaskzTy7yyPrUn3Fr-40">
          <mxGeometry y="26" width="120" height="26" as="geometry" />
        </mxCell>
        <mxCell id="jVgVaskzTy7yyPrUn3Fr-42" value="+ codigo: string" style="text;html=1;strokeColor=none;fillColor=none;align=left;verticalAlign=top;spacingLeft=4;spacingRight=4;whiteSpace=wrap;overflow=hidden;rotatable=0;points=[[0,0.5],[1,0.5]];portConstraint=eastwest;labelBackgroundColor=none;shadow=1;" vertex="1" parent="jVgVaskzTy7yyPrUn3Fr-40">
          <mxGeometry y="52" width="120" height="26" as="geometry" />
        </mxCell>
        <mxCell id="jVgVaskzTy7yyPrUn3Fr-43" value="" style="line;html=1;strokeWidth=1;fillColor=none;align=left;verticalAlign=middle;spacingTop=-1;spacingLeft=3;spacingRight=3;rotatable=0;labelPosition=right;points=[];portConstraint=eastwest;labelBackgroundColor=none;shadow=1;" vertex="1" parent="jVgVaskzTy7yyPrUn3Fr-40">
          <mxGeometry y="78" width="120" height="8" as="geometry" />
        </mxCell>
        <mxCell id="jVgVaskzTy7yyPrUn3Fr-44" value="+ Local()" style="text;html=1;strokeColor=none;fillColor=none;align=left;verticalAlign=top;spacingLeft=4;spacingRight=4;whiteSpace=wrap;overflow=hidden;rotatable=0;points=[[0,0.5],[1,0.5]];portConstraint=eastwest;labelBackgroundColor=none;shadow=1;" vertex="1" parent="jVgVaskzTy7yyPrUn3Fr-40">
          <mxGeometry y="86" width="120" height="26" as="geometry" />
        </mxCell>
        <mxCell id="jVgVaskzTy7yyPrUn3Fr-45" value="Turno" style="swimlane;html=1;fontStyle=1;align=center;verticalAlign=top;childLayout=stackLayout;horizontal=1;startSize=26;horizontalStack=0;resizeParent=1;resizeLast=0;collapsible=1;marginBottom=0;swimlaneFillColor=#ffffff;rounded=0;shadow=1;comic=0;labelBackgroundColor=none;strokeWidth=1;fillColor=none;fontFamily=Verdana;fontSize=12" vertex="1" parent="1">
          <mxGeometry x="50" y="1050" width="200" height="190" as="geometry">
            <mxRectangle x="370" y="160" width="90" height="30" as="alternateBounds" />
          </mxGeometry>
        </mxCell>
        <mxCell id="jVgVaskzTy7yyPrUn3Fr-46" value="- codigo: string" style="text;html=1;strokeColor=none;fillColor=none;align=left;verticalAlign=top;spacingLeft=4;spacingRight=4;whiteSpace=wrap;overflow=hidden;rotatable=0;points=[[0,0.5],[1,0.5]];portConstraint=eastwest;shadow=1;" vertex="1" parent="jVgVaskzTy7yyPrUn3Fr-45">
          <mxGeometry y="26" width="200" height="26" as="geometry" />
        </mxCell>
        <mxCell id="jVgVaskzTy7yyPrUn3Fr-47" value="- horaInicio: datetime" style="text;html=1;strokeColor=none;fillColor=none;align=left;verticalAlign=top;spacingLeft=4;spacingRight=4;whiteSpace=wrap;overflow=hidden;rotatable=0;points=[[0,0.5],[1,0.5]];portConstraint=eastwest;shadow=1;" vertex="1" parent="jVgVaskzTy7yyPrUn3Fr-45">
          <mxGeometry y="52" width="200" height="26" as="geometry" />
        </mxCell>
        <mxCell id="jVgVaskzTy7yyPrUn3Fr-48" value="- horaFin: datetime" style="text;html=1;strokeColor=none;fillColor=none;align=left;verticalAlign=top;spacingLeft=4;spacingRight=4;whiteSpace=wrap;overflow=hidden;rotatable=0;points=[[0,0.5],[1,0.5]];portConstraint=eastwest;shadow=1;" vertex="1" parent="jVgVaskzTy7yyPrUn3Fr-45">
          <mxGeometry y="78" width="200" height="26" as="geometry" />
        </mxCell>
        <mxCell id="jVgVaskzTy7yyPrUn3Fr-49" value="+ msjEnviados: Mensajes[]" style="text;html=1;strokeColor=none;fillColor=none;align=left;verticalAlign=top;spacingLeft=4;spacingRight=4;whiteSpace=wrap;overflow=hidden;rotatable=0;points=[[0,0.5],[1,0.5]];portConstraint=eastwest;shadow=1;" vertex="1" parent="jVgVaskzTy7yyPrUn3Fr-45">
          <mxGeometry y="104" width="200" height="26" as="geometry" />
        </mxCell>
        <mxCell id="jVgVaskzTy7yyPrUn3Fr-50" value="+ msjRecibidos: Mensajes[]" style="text;html=1;strokeColor=none;fillColor=none;align=left;verticalAlign=top;spacingLeft=4;spacingRight=4;whiteSpace=wrap;overflow=hidden;rotatable=0;points=[[0,0.5],[1,0.5]];portConstraint=eastwest;shadow=1;" vertex="1" parent="jVgVaskzTy7yyPrUn3Fr-45">
          <mxGeometry y="130" width="200" height="26" as="geometry" />
        </mxCell>
        <mxCell id="jVgVaskzTy7yyPrUn3Fr-51" value="" style="line;html=1;strokeWidth=1;fillColor=none;align=left;verticalAlign=middle;spacingTop=-1;spacingLeft=3;spacingRight=3;rotatable=0;labelPosition=right;points=[];portConstraint=eastwest;shadow=1;" vertex="1" parent="jVgVaskzTy7yyPrUn3Fr-45">
          <mxGeometry y="156" width="200" height="8" as="geometry" />
        </mxCell>
        <mxCell id="jVgVaskzTy7yyPrUn3Fr-52" value="+ guardarMensaje(Mensaje): bool&amp;nbsp;" style="text;html=1;strokeColor=none;fillColor=none;align=left;verticalAlign=top;spacingLeft=4;spacingRight=4;whiteSpace=wrap;overflow=hidden;rotatable=0;points=[[0,0.5],[1,0.5]];portConstraint=eastwest;shadow=1;" vertex="1" parent="jVgVaskzTy7yyPrUn3Fr-45">
          <mxGeometry y="164" width="200" height="26" as="geometry" />
        </mxCell>
        <mxCell id="jVgVaskzTy7yyPrUn3Fr-53" value="ProcesoProductivo" style="swimlane;html=1;fontStyle=1;align=center;verticalAlign=top;childLayout=stackLayout;horizontal=1;startSize=26;horizontalStack=0;resizeParent=1;resizeLast=0;collapsible=1;marginBottom=0;swimlaneFillColor=#ffffff;rounded=0;shadow=0;comic=0;labelBackgroundColor=none;strokeWidth=1;fillColor=none;fontFamily=Verdana;fontSize=12" vertex="1" parent="1">
          <mxGeometry x="270" y="1510" width="230" height="164" as="geometry" />
        </mxCell>
        <mxCell id="jVgVaskzTy7yyPrUn3Fr-54" value="+ codigo: string" style="text;html=1;strokeColor=none;fillColor=none;align=left;verticalAlign=top;spacingLeft=4;spacingRight=4;whiteSpace=wrap;overflow=hidden;rotatable=0;points=[[0,0.5],[1,0.5]];portConstraint=eastwest;" vertex="1" parent="jVgVaskzTy7yyPrUn3Fr-53">
          <mxGeometry y="26" width="230" height="26" as="geometry" />
        </mxCell>
        <mxCell id="jVgVaskzTy7yyPrUn3Fr-55" value="+ cadena: Mensaje[ ]" style="text;html=1;strokeColor=none;fillColor=none;align=left;verticalAlign=top;spacingLeft=4;spacingRight=4;whiteSpace=wrap;overflow=hidden;rotatable=0;points=[[0,0.5],[1,0.5]];portConstraint=eastwest;" vertex="1" parent="jVgVaskzTy7yyPrUn3Fr-53">
          <mxGeometry y="52" width="230" height="26" as="geometry" />
        </mxCell>
        <mxCell id="jVgVaskzTy7yyPrUn3Fr-56" value="+ horaInicio: datetime" style="text;html=1;strokeColor=none;fillColor=none;align=left;verticalAlign=top;spacingLeft=4;spacingRight=4;whiteSpace=wrap;overflow=hidden;rotatable=0;points=[[0,0.5],[1,0.5]];portConstraint=eastwest;" vertex="1" parent="jVgVaskzTy7yyPrUn3Fr-53">
          <mxGeometry y="78" width="230" height="26" as="geometry" />
        </mxCell>
        <mxCell id="jVgVaskzTy7yyPrUn3Fr-57" value="+ programacion: Programa" style="text;html=1;strokeColor=none;fillColor=none;align=left;verticalAlign=top;spacingLeft=4;spacingRight=4;whiteSpace=wrap;overflow=hidden;rotatable=0;points=[[0,0.5],[1,0.5]];portConstraint=eastwest;" vertex="1" parent="jVgVaskzTy7yyPrUn3Fr-53">
          <mxGeometry y="104" width="230" height="26" as="geometry" />
        </mxCell>
        <mxCell id="jVgVaskzTy7yyPrUn3Fr-58" value="" style="line;html=1;strokeWidth=1;align=left;verticalAlign=middle;spacingTop=-1;spacingLeft=3;spacingRight=3;rotatable=0;labelPosition=right;points=[];portConstraint=eastwest;" vertex="1" parent="jVgVaskzTy7yyPrUn3Fr-53">
          <mxGeometry y="130" width="230" height="8" as="geometry" />
        </mxCell>
        <mxCell id="jVgVaskzTy7yyPrUn3Fr-59" value="+ desencadenarProceso(): void" style="text;html=1;strokeColor=none;fillColor=none;align=left;verticalAlign=top;spacingLeft=4;spacingRight=4;whiteSpace=wrap;overflow=hidden;rotatable=0;points=[[0,0.5],[1,0.5]];portConstraint=eastwest;" vertex="1" parent="jVgVaskzTy7yyPrUn3Fr-53">
          <mxGeometry y="138" width="230" height="26" as="geometry" />
        </mxCell>
        <mxCell id="jVgVaskzTy7yyPrUn3Fr-60" value="Administrador" style="swimlane;html=1;fontStyle=1;align=center;verticalAlign=top;childLayout=stackLayout;horizontal=1;startSize=26;horizontalStack=0;resizeParent=1;resizeLast=0;collapsible=1;marginBottom=0;swimlaneFillColor=#ffffff;rounded=0;shadow=1;comic=0;labelBackgroundColor=none;strokeWidth=1;fillColor=none;fontFamily=Verdana;fontSize=12" vertex="1" parent="1">
          <mxGeometry x="-560" y="1450" width="235" height="320" as="geometry">
            <mxRectangle x="600" y="160" width="110" height="30" as="alternateBounds" />
          </mxGeometry>
        </mxCell>
        <mxCell id="jVgVaskzTy7yyPrUn3Fr-61" value="&lt;span style=&quot;white-space: pre;&quot;&gt; &lt;/span&gt;..." style="text;html=1;strokeColor=none;fillColor=none;align=left;verticalAlign=top;spacingLeft=4;spacingRight=4;whiteSpace=wrap;overflow=hidden;rotatable=0;points=[[0,0.5],[1,0.5]];portConstraint=eastwest;shadow=1;" vertex="1" parent="jVgVaskzTy7yyPrUn3Fr-60">
          <mxGeometry y="26" width="235" height="26" as="geometry" />
        </mxCell>
        <mxCell id="jVgVaskzTy7yyPrUn3Fr-62" value="+ seccion: Seccion { administracion }" style="text;html=1;strokeColor=none;fillColor=none;align=left;verticalAlign=top;spacingLeft=4;spacingRight=4;whiteSpace=wrap;overflow=hidden;rotatable=0;points=[[0,0.5],[1,0.5]];portConstraint=eastwest;shadow=1;" vertex="1" parent="jVgVaskzTy7yyPrUn3Fr-60">
          <mxGeometry y="52" width="235" height="26" as="geometry" />
        </mxCell>
        <mxCell id="jVgVaskzTy7yyPrUn3Fr-63" value="+ procesos: ProcesoProductivo [ ]" style="text;html=1;strokeColor=none;fillColor=none;align=left;verticalAlign=top;spacingLeft=4;spacingRight=4;whiteSpace=wrap;overflow=hidden;rotatable=0;points=[[0,0.5],[1,0.5]];portConstraint=eastwest;shadow=1;" vertex="1" parent="jVgVaskzTy7yyPrUn3Fr-60">
          <mxGeometry y="78" width="235" height="26" as="geometry" />
        </mxCell>
        <mxCell id="jVgVaskzTy7yyPrUn3Fr-64" value="" style="line;html=1;strokeWidth=1;fillColor=none;align=left;verticalAlign=middle;spacingTop=-1;spacingLeft=3;spacingRight=3;rotatable=0;labelPosition=right;points=[];portConstraint=eastwest;shadow=1;" vertex="1" parent="jVgVaskzTy7yyPrUn3Fr-60">
          <mxGeometry y="104" width="235" height="8" as="geometry" />
        </mxCell>
        <mxCell id="jVgVaskzTy7yyPrUn3Fr-65" value="+ crearProceso (): void" style="text;html=1;strokeColor=none;fillColor=none;align=left;verticalAlign=top;spacingLeft=4;spacingRight=4;whiteSpace=wrap;overflow=hidden;rotatable=0;points=[[0,0.5],[1,0.5]];portConstraint=eastwest;shadow=1;" vertex="1" parent="jVgVaskzTy7yyPrUn3Fr-60">
          <mxGeometry y="112" width="235" height="26" as="geometry" />
        </mxCell>
        <mxCell id="jVgVaskzTy7yyPrUn3Fr-66" value="+ iniciarProceso (): void" style="text;html=1;strokeColor=none;fillColor=none;align=left;verticalAlign=top;spacingLeft=4;spacingRight=4;whiteSpace=wrap;overflow=hidden;rotatable=0;points=[[0,0.5],[1,0.5]];portConstraint=eastwest;shadow=1;" vertex="1" parent="jVgVaskzTy7yyPrUn3Fr-60">
          <mxGeometry y="138" width="235" height="26" as="geometry" />
        </mxCell>
        <mxCell id="jVgVaskzTy7yyPrUn3Fr-67" value="+ crearProceso (): void" style="text;html=1;strokeColor=none;fillColor=none;align=left;verticalAlign=top;spacingLeft=4;spacingRight=4;whiteSpace=wrap;overflow=hidden;rotatable=0;points=[[0,0.5],[1,0.5]];portConstraint=eastwest;shadow=1;" vertex="1" parent="jVgVaskzTy7yyPrUn3Fr-60">
          <mxGeometry y="164" width="235" height="26" as="geometry" />
        </mxCell>
        <mxCell id="jVgVaskzTy7yyPrUn3Fr-68" value="+ crearEmpleado (): void" style="text;html=1;strokeColor=none;fillColor=none;align=left;verticalAlign=top;spacingLeft=4;spacingRight=4;whiteSpace=wrap;overflow=hidden;rotatable=0;points=[[0,0.5],[1,0.5]];portConstraint=eastwest;shadow=1;" vertex="1" parent="jVgVaskzTy7yyPrUn3Fr-60">
          <mxGeometry y="190" width="235" height="26" as="geometry" />
        </mxCell>
        <mxCell id="jVgVaskzTy7yyPrUn3Fr-69" value="+ asociarProceso (): void" style="text;html=1;strokeColor=none;fillColor=none;align=left;verticalAlign=top;spacingLeft=4;spacingRight=4;whiteSpace=wrap;overflow=hidden;rotatable=0;points=[[0,0.5],[1,0.5]];portConstraint=eastwest;shadow=1;" vertex="1" parent="jVgVaskzTy7yyPrUn3Fr-60">
          <mxGeometry y="216" width="235" height="26" as="geometry" />
        </mxCell>
        <mxCell id="jVgVaskzTy7yyPrUn3Fr-70" value="+ iniciarProceso (): void" style="text;html=1;strokeColor=none;fillColor=none;align=left;verticalAlign=top;spacingLeft=4;spacingRight=4;whiteSpace=wrap;overflow=hidden;rotatable=0;points=[[0,0.5],[1,0.5]];portConstraint=eastwest;shadow=1;" vertex="1" parent="jVgVaskzTy7yyPrUn3Fr-60">
          <mxGeometry y="242" width="235" height="26" as="geometry" />
        </mxCell>
        <mxCell id="jVgVaskzTy7yyPrUn3Fr-71" value="+ asociarProceso (): void" style="text;html=1;strokeColor=none;fillColor=none;align=left;verticalAlign=top;spacingLeft=4;spacingRight=4;whiteSpace=wrap;overflow=hidden;rotatable=0;points=[[0,0.5],[1,0.5]];portConstraint=eastwest;shadow=1;" vertex="1" parent="jVgVaskzTy7yyPrUn3Fr-60">
          <mxGeometry y="268" width="235" height="26" as="geometry" />
        </mxCell>
        <mxCell id="jVgVaskzTy7yyPrUn3Fr-72" value="+ crearEmpleado (): void" style="text;html=1;strokeColor=none;fillColor=none;align=left;verticalAlign=top;spacingLeft=4;spacingRight=4;whiteSpace=wrap;overflow=hidden;rotatable=0;points=[[0,0.5],[1,0.5]];portConstraint=eastwest;shadow=1;" vertex="1" parent="jVgVaskzTy7yyPrUn3Fr-60">
          <mxGeometry y="294" width="235" height="26" as="geometry" />
        </mxCell>
        <mxCell id="jVgVaskzTy7yyPrUn3Fr-73" value="Notificacion" style="swimlane;html=1;fontStyle=1;align=center;verticalAlign=top;childLayout=stackLayout;horizontal=1;startSize=26;horizontalStack=0;resizeParent=1;resizeLast=0;collapsible=1;marginBottom=0;swimlaneFillColor=#ffffff;rounded=0;shadow=1;comic=0;labelBackgroundColor=none;strokeWidth=1;fillColor=none;fontFamily=Verdana;fontSize=12" vertex="1" parent="1">
          <mxGeometry x="920" y="1460" width="160" height="164" as="geometry">
            <mxRectangle x="230" y="-490" width="90" height="30" as="alternateBounds" />
          </mxGeometry>
        </mxCell>
        <mxCell id="jVgVaskzTy7yyPrUn3Fr-74" value="+ codigo: string" style="text;html=1;strokeColor=none;fillColor=none;align=left;verticalAlign=top;spacingLeft=4;spacingRight=4;whiteSpace=wrap;overflow=hidden;rotatable=0;points=[[0,0.5],[1,0.5]];portConstraint=eastwest;shadow=1;" vertex="1" parent="jVgVaskzTy7yyPrUn3Fr-73">
          <mxGeometry y="26" width="160" height="26" as="geometry" />
        </mxCell>
        <mxCell id="jVgVaskzTy7yyPrUn3Fr-75" value="+ descripcion: string" style="text;html=1;strokeColor=none;fillColor=none;align=left;verticalAlign=top;spacingLeft=4;spacingRight=4;whiteSpace=wrap;overflow=hidden;rotatable=0;points=[[0,0.5],[1,0.5]];portConstraint=eastwest;shadow=1;" vertex="1" parent="jVgVaskzTy7yyPrUn3Fr-73">
          <mxGeometry y="52" width="160" height="26" as="geometry" />
        </mxCell>
        <mxCell id="jVgVaskzTy7yyPrUn3Fr-76" value="+ imagen: file" style="text;html=1;strokeColor=none;fillColor=none;align=left;verticalAlign=top;spacingLeft=4;spacingRight=4;whiteSpace=wrap;overflow=hidden;rotatable=0;points=[[0,0.5],[1,0.5]];portConstraint=eastwest;shadow=1;" vertex="1" parent="jVgVaskzTy7yyPrUn3Fr-73">
          <mxGeometry y="78" width="160" height="26" as="geometry" />
        </mxCell>
        <mxCell id="jVgVaskzTy7yyPrUn3Fr-77" value="+ estado: enum" style="text;html=1;strokeColor=none;fillColor=none;align=left;verticalAlign=top;spacingLeft=4;spacingRight=4;whiteSpace=wrap;overflow=hidden;rotatable=0;points=[[0,0.5],[1,0.5]];portConstraint=eastwest;shadow=1;" vertex="1" parent="jVgVaskzTy7yyPrUn3Fr-73">
          <mxGeometry y="104" width="160" height="26" as="geometry" />
        </mxCell>
        <mxCell id="jVgVaskzTy7yyPrUn3Fr-78" value="+ durabilidad: { temporal }" style="text;html=1;strokeColor=none;fillColor=none;align=left;verticalAlign=top;spacingLeft=4;spacingRight=4;whiteSpace=wrap;overflow=hidden;rotatable=0;points=[[0,0.5],[1,0.5]];portConstraint=eastwest;shadow=1;" vertex="1" parent="jVgVaskzTy7yyPrUn3Fr-73">
          <mxGeometry y="130" width="160" height="26" as="geometry" />
        </mxCell>
        <mxCell id="jVgVaskzTy7yyPrUn3Fr-79" value="" style="line;html=1;strokeWidth=1;fillColor=none;align=left;verticalAlign=middle;spacingTop=-1;spacingLeft=3;spacingRight=3;rotatable=0;labelPosition=right;points=[];portConstraint=eastwest;shadow=1;" vertex="1" parent="jVgVaskzTy7yyPrUn3Fr-73">
          <mxGeometry y="156" width="160" height="8" as="geometry" />
        </mxCell>
        <mxCell id="jVgVaskzTy7yyPrUn3Fr-80" value="Tarea" style="swimlane;html=1;fontStyle=1;align=center;verticalAlign=top;childLayout=stackLayout;horizontal=1;startSize=26;horizontalStack=0;resizeParent=1;resizeLast=0;collapsible=1;marginBottom=0;swimlaneFillColor=#ffffff;rounded=0;shadow=1;comic=0;labelBackgroundColor=none;strokeWidth=1;fillColor=none;fontFamily=Verdana;fontSize=12" vertex="1" parent="1">
          <mxGeometry x="700" y="1470" width="160" height="170" as="geometry">
            <mxRectangle x="370" y="160" width="90" height="30" as="alternateBounds" />
          </mxGeometry>
        </mxCell>
        <mxCell id="jVgVaskzTy7yyPrUn3Fr-81" value="+ estado: enum" style="text;html=1;strokeColor=none;fillColor=none;align=left;verticalAlign=top;spacingLeft=4;spacingRight=4;whiteSpace=wrap;overflow=hidden;rotatable=0;points=[[0,0.5],[1,0.5]];portConstraint=eastwest;shadow=1;" vertex="1" parent="jVgVaskzTy7yyPrUn3Fr-80">
          <mxGeometry y="26" width="160" height="26" as="geometry" />
        </mxCell>
        <mxCell id="jVgVaskzTy7yyPrUn3Fr-82" value="+ codigo: string" style="text;html=1;strokeColor=none;fillColor=none;align=left;verticalAlign=top;spacingLeft=4;spacingRight=4;whiteSpace=wrap;overflow=hidden;rotatable=0;points=[[0,0.5],[1,0.5]];portConstraint=eastwest;shadow=1;" vertex="1" parent="jVgVaskzTy7yyPrUn3Fr-80">
          <mxGeometry y="52" width="160" height="26" as="geometry" />
        </mxCell>
        <mxCell id="jVgVaskzTy7yyPrUn3Fr-83" value="+ descripcion: string" style="text;html=1;strokeColor=none;fillColor=none;align=left;verticalAlign=top;spacingLeft=4;spacingRight=4;whiteSpace=wrap;overflow=hidden;rotatable=0;points=[[0,0.5],[1,0.5]];portConstraint=eastwest;shadow=1;" vertex="1" parent="jVgVaskzTy7yyPrUn3Fr-80">
          <mxGeometry y="78" width="160" height="26" as="geometry" />
        </mxCell>
        <mxCell id="jVgVaskzTy7yyPrUn3Fr-84" value="+ durabilidad: { temporal }" style="text;html=1;strokeColor=none;fillColor=none;align=left;verticalAlign=top;spacingLeft=4;spacingRight=4;whiteSpace=wrap;overflow=hidden;rotatable=0;points=[[0,0.5],[1,0.5]];portConstraint=eastwest;shadow=1;" vertex="1" parent="jVgVaskzTy7yyPrUn3Fr-80">
          <mxGeometry y="104" width="160" height="26" as="geometry" />
        </mxCell>
        <mxCell id="jVgVaskzTy7yyPrUn3Fr-85" value="" style="line;html=1;strokeWidth=1;fillColor=none;align=left;verticalAlign=middle;spacingTop=-1;spacingLeft=3;spacingRight=3;rotatable=0;labelPosition=right;points=[];portConstraint=eastwest;shadow=1;" vertex="1" parent="jVgVaskzTy7yyPrUn3Fr-80">
          <mxGeometry y="130" width="160" height="8" as="geometry" />
        </mxCell>
        <mxCell id="jVgVaskzTy7yyPrUn3Fr-86" value="+ cambiarEstado(): bool" style="text;html=1;strokeColor=none;fillColor=none;align=left;verticalAlign=top;spacingLeft=4;spacingRight=4;whiteSpace=wrap;overflow=hidden;rotatable=0;points=[[0,0.5],[1,0.5]];portConstraint=eastwest;shadow=1;" vertex="1" parent="jVgVaskzTy7yyPrUn3Fr-80">
          <mxGeometry y="138" width="160" height="26" as="geometry" />
        </mxCell>
        <mxCell id="jVgVaskzTy7yyPrUn3Fr-87" value="Receta" style="swimlane;html=1;fontStyle=1;align=center;verticalAlign=top;childLayout=stackLayout;horizontal=1;startSize=26;horizontalStack=0;resizeParent=1;resizeLast=0;collapsible=1;marginBottom=0;swimlaneFillColor=#ffffff;rounded=0;shadow=1;comic=0;labelBackgroundColor=none;strokeWidth=1;fillColor=none;fontFamily=Verdana;fontSize=12" vertex="1" parent="1">
          <mxGeometry x="970" y="1350" width="170" height="60" as="geometry">
            <mxRectangle x="370" y="160" width="90" height="30" as="alternateBounds" />
          </mxGeometry>
        </mxCell>
        <mxCell id="jVgVaskzTy7yyPrUn3Fr-88" value="+ durabilidad: { permanente }" style="text;html=1;strokeColor=none;fillColor=none;align=left;verticalAlign=top;spacingLeft=4;spacingRight=4;whiteSpace=wrap;overflow=hidden;rotatable=0;points=[[0,0.5],[1,0.5]];portConstraint=eastwest;shadow=1;" vertex="1" parent="jVgVaskzTy7yyPrUn3Fr-87">
          <mxGeometry y="26" width="170" height="26" as="geometry" />
        </mxCell>
        <mxCell id="jVgVaskzTy7yyPrUn3Fr-89" value="" style="line;html=1;strokeWidth=1;fillColor=none;align=left;verticalAlign=middle;spacingTop=-1;spacingLeft=3;spacingRight=3;rotatable=0;labelPosition=right;points=[];portConstraint=eastwest;shadow=1;" vertex="1" parent="jVgVaskzTy7yyPrUn3Fr-87">
          <mxGeometry y="52" width="170" height="8" as="geometry" />
        </mxCell>
        <mxCell id="jVgVaskzTy7yyPrUn3Fr-90" value="IEnviable" style="swimlane;html=1;fontStyle=1;align=center;verticalAlign=top;childLayout=stackLayout;horizontal=1;startSize=26;horizontalStack=0;resizeParent=1;resizeLast=0;collapsible=1;marginBottom=0;swimlaneFillColor=#ffffff;rounded=0;shadow=1;comic=0;labelBackgroundColor=none;strokeWidth=1;fillColor=none;fontFamily=Verdana;fontSize=12" vertex="1" parent="1">
          <mxGeometry x="570" y="1270" width="220" height="120" as="geometry">
            <mxRectangle x="370" y="160" width="90" height="30" as="alternateBounds" />
          </mxGeometry>
        </mxCell>
        <mxCell id="jVgVaskzTy7yyPrUn3Fr-91" value="+ durabilidad: { permanente, temporal }" style="text;html=1;strokeColor=none;fillColor=none;align=left;verticalAlign=top;spacingLeft=4;spacingRight=4;whiteSpace=wrap;overflow=hidden;rotatable=0;points=[[0,0.5],[1,0.5]];portConstraint=eastwest;shadow=1;" vertex="1" parent="jVgVaskzTy7yyPrUn3Fr-90">
          <mxGeometry y="26" width="220" height="26" as="geometry" />
        </mxCell>
        <mxCell id="jVgVaskzTy7yyPrUn3Fr-92" value="" style="line;html=1;strokeWidth=1;fillColor=none;align=left;verticalAlign=middle;spacingTop=-1;spacingLeft=3;spacingRight=3;rotatable=0;labelPosition=right;points=[];portConstraint=eastwest;shadow=1;" vertex="1" parent="jVgVaskzTy7yyPrUn3Fr-90">
          <mxGeometry y="52" width="220" height="8" as="geometry" />
        </mxCell>
        <mxCell id="jVgVaskzTy7yyPrUn3Fr-93" value="+ cambiarEstado(): bool" style="text;html=1;strokeColor=none;fillColor=none;align=left;verticalAlign=top;spacingLeft=4;spacingRight=4;whiteSpace=wrap;overflow=hidden;rotatable=0;points=[[0,0.5],[1,0.5]];portConstraint=eastwest;shadow=1;" vertex="1" parent="jVgVaskzTy7yyPrUn3Fr-90">
          <mxGeometry y="60" width="220" height="26" as="geometry" />
        </mxCell>
        <mxCell id="jVgVaskzTy7yyPrUn3Fr-94" value="+ obtenerEstado(): bool" style="text;html=1;strokeColor=none;fillColor=none;align=left;verticalAlign=top;spacingLeft=4;spacingRight=4;whiteSpace=wrap;overflow=hidden;rotatable=0;points=[[0,0.5],[1,0.5]];portConstraint=eastwest;shadow=1;" vertex="1" parent="jVgVaskzTy7yyPrUn3Fr-90">
          <mxGeometry y="86" width="220" height="26" as="geometry" />
        </mxCell>
        <mxCell id="jVgVaskzTy7yyPrUn3Fr-95" value="Formulario" style="swimlane;html=1;fontStyle=1;align=center;verticalAlign=top;childLayout=stackLayout;horizontal=1;startSize=26;horizontalStack=0;resizeParent=1;resizeLast=0;collapsible=1;marginBottom=0;swimlaneFillColor=#ffffff;rounded=0;shadow=1;comic=0;labelBackgroundColor=none;strokeWidth=1;fillColor=none;fontFamily=Verdana;fontSize=12" vertex="1" parent="1">
          <mxGeometry x="960" y="1250" width="190" height="60" as="geometry">
            <mxRectangle x="370" y="160" width="90" height="30" as="alternateBounds" />
          </mxGeometry>
        </mxCell>
        <mxCell id="jVgVaskzTy7yyPrUn3Fr-96" value="+ durabilidad: { permanente }" style="text;html=1;strokeColor=none;fillColor=none;align=left;verticalAlign=top;spacingLeft=4;spacingRight=4;whiteSpace=wrap;overflow=hidden;rotatable=0;points=[[0,0.5],[1,0.5]];portConstraint=eastwest;shadow=1;" vertex="1" parent="jVgVaskzTy7yyPrUn3Fr-95">
          <mxGeometry y="26" width="190" height="26" as="geometry" />
        </mxCell>
        <mxCell id="jVgVaskzTy7yyPrUn3Fr-97" value="" style="line;html=1;strokeWidth=1;fillColor=none;align=left;verticalAlign=middle;spacingTop=-1;spacingLeft=3;spacingRight=3;rotatable=0;labelPosition=right;points=[];portConstraint=eastwest;shadow=1;" vertex="1" parent="jVgVaskzTy7yyPrUn3Fr-95">
          <mxGeometry y="52" width="190" height="8" as="geometry" />
        </mxCell>
        <mxCell id="jVgVaskzTy7yyPrUn3Fr-98" value="" style="endArrow=block;dashed=1;endFill=0;endSize=12;html=1;rounded=0;entryX=0.75;entryY=1;entryDx=0;entryDy=0;exitX=0.5;exitY=0;exitDx=0;exitDy=0;" edge="1" parent="1" source="jVgVaskzTy7yyPrUn3Fr-80" target="jVgVaskzTy7yyPrUn3Fr-90">
          <mxGeometry width="160" relative="1" as="geometry">
            <mxPoint x="570" y="1570" as="sourcePoint" />
            <mxPoint x="730" y="1570" as="targetPoint" />
          </mxGeometry>
        </mxCell>
        <mxCell id="jVgVaskzTy7yyPrUn3Fr-99" value="" style="endArrow=block;dashed=1;endFill=0;endSize=12;html=1;rounded=0;entryX=1;entryY=1;entryDx=0;entryDy=0;exitX=0.5;exitY=0;exitDx=0;exitDy=0;" edge="1" parent="1" source="jVgVaskzTy7yyPrUn3Fr-73" target="jVgVaskzTy7yyPrUn3Fr-90">
          <mxGeometry width="160" relative="1" as="geometry">
            <mxPoint x="680" y="1490" as="sourcePoint" />
            <mxPoint x="735" y="1400" as="targetPoint" />
          </mxGeometry>
        </mxCell>
        <mxCell id="jVgVaskzTy7yyPrUn3Fr-100" value="" style="endArrow=block;dashed=1;endFill=0;endSize=12;html=1;rounded=0;entryX=1;entryY=0.5;entryDx=0;entryDy=0;exitX=-0.014;exitY=-0.121;exitDx=0;exitDy=0;exitPerimeter=0;" edge="1" parent="1" source="jVgVaskzTy7yyPrUn3Fr-88" target="jVgVaskzTy7yyPrUn3Fr-91">
          <mxGeometry width="160" relative="1" as="geometry">
            <mxPoint x="1010" y="1470" as="sourcePoint" />
            <mxPoint x="900" y="1400" as="targetPoint" />
            <Array as="points" />
          </mxGeometry>
        </mxCell>
        <mxCell id="jVgVaskzTy7yyPrUn3Fr-101" value="" style="endArrow=block;dashed=1;endFill=0;endSize=12;html=1;rounded=0;entryX=1;entryY=0;entryDx=0;entryDy=0;exitX=0;exitY=1;exitDx=0;exitDy=0;" edge="1" parent="1" source="jVgVaskzTy7yyPrUn3Fr-95" target="jVgVaskzTy7yyPrUn3Fr-90">
          <mxGeometry width="160" relative="1" as="geometry">
            <mxPoint x="968" y="1333" as="sourcePoint" />
            <mxPoint x="900" y="1345" as="targetPoint" />
            <Array as="points" />
          </mxGeometry>
        </mxCell>
        <mxCell id="jVgVaskzTy7yyPrUn3Fr-102" value="1" style="endArrow=open;html=1;endSize=12;startArrow=diamondThin;startSize=14;startFill=0;edgeStyle=orthogonalEdgeStyle;align=left;verticalAlign=bottom;rounded=0;exitX=1;exitY=0.5;exitDx=0;exitDy=0;entryX=0;entryY=0.5;entryDx=0;entryDy=0;" edge="1" parent="1" source="jVgVaskzTy7yyPrUn3Fr-24" target="jVgVaskzTy7yyPrUn3Fr-91">
          <mxGeometry x="-1" y="3" relative="1" as="geometry">
            <mxPoint x="460" y="1350" as="sourcePoint" />
            <mxPoint x="620" y="1350" as="targetPoint" />
          </mxGeometry>
        </mxCell>
        <mxCell id="jVgVaskzTy7yyPrUn3Fr-103" value="envuelve un&amp;nbsp;" style="edgeLabel;html=1;align=center;verticalAlign=middle;resizable=0;points=[];" connectable="0" vertex="1" parent="jVgVaskzTy7yyPrUn3Fr-102">
          <mxGeometry x="-0.1488" relative="1" as="geometry">
            <mxPoint as="offset" />
          </mxGeometry>
        </mxCell>
        <mxCell id="jVgVaskzTy7yyPrUn3Fr-104" value="1" style="endArrow=open;html=1;endSize=12;startArrow=diamondThin;startSize=14;startFill=1;edgeStyle=orthogonalEdgeStyle;align=left;verticalAlign=bottom;rounded=0;exitX=1;exitY=0.5;exitDx=0;exitDy=0;entryX=0.75;entryY=0;entryDx=0;entryDy=0;" edge="1" parent="1" source="jVgVaskzTy7yyPrUn3Fr-46" target="jVgVaskzTy7yyPrUn3Fr-21">
          <mxGeometry x="-0.8703" y="19" relative="1" as="geometry">
            <mxPoint x="240" y="1460" as="sourcePoint" />
            <mxPoint x="400" y="1460" as="targetPoint" />
            <Array as="points">
              <mxPoint x="388" y="1089" />
            </Array>
            <mxPoint as="offset" />
          </mxGeometry>
        </mxCell>
        <mxCell id="jVgVaskzTy7yyPrUn3Fr-105" value="guarda un&amp;nbsp;" style="edgeLabel;html=1;align=center;verticalAlign=middle;resizable=0;points=[];" connectable="0" vertex="1" parent="jVgVaskzTy7yyPrUn3Fr-104">
          <mxGeometry x="-0.0107" relative="1" as="geometry">
            <mxPoint as="offset" />
          </mxGeometry>
        </mxCell>
        <mxCell id="jVgVaskzTy7yyPrUn3Fr-106" value="1" style="endArrow=open;html=1;endSize=12;startArrow=diamondThin;startSize=14;startFill=1;edgeStyle=orthogonalEdgeStyle;align=left;verticalAlign=bottom;rounded=0;exitX=0.5;exitY=0;exitDx=0;exitDy=0;entryX=0;entryY=0.077;entryDx=0;entryDy=0;entryPerimeter=0;" edge="1" parent="1" source="jVgVaskzTy7yyPrUn3Fr-8" target="jVgVaskzTy7yyPrUn3Fr-48">
          <mxGeometry x="-0.8095" y="-15" relative="1" as="geometry">
            <mxPoint x="240" y="1650" as="sourcePoint" />
            <mxPoint x="190" y="1650" as="targetPoint" />
            <Array as="points">
              <mxPoint x="-45" y="1130" />
            </Array>
            <mxPoint as="offset" />
          </mxGeometry>
        </mxCell>
        <mxCell id="jVgVaskzTy7yyPrUn3Fr-107" value="abre un" style="edgeLabel;html=1;align=center;verticalAlign=middle;resizable=0;points=[];" connectable="0" vertex="1" parent="jVgVaskzTy7yyPrUn3Fr-106">
          <mxGeometry x="-0.1274" relative="1" as="geometry">
            <mxPoint y="1" as="offset" />
          </mxGeometry>
        </mxCell>
        <mxCell id="jVgVaskzTy7yyPrUn3Fr-108" value="1" style="endArrow=open;html=1;endSize=12;startArrow=diamondThin;startSize=14;startFill=1;edgeStyle=orthogonalEdgeStyle;align=left;verticalAlign=bottom;rounded=0;entryX=1;entryY=0.5;entryDx=0;entryDy=0;exitX=1;exitY=0.5;exitDx=0;exitDy=0;" edge="1" parent="1" source="jVgVaskzTy7yyPrUn3Fr-56" target="jVgVaskzTy7yyPrUn3Fr-26">
          <mxGeometry x="-0.851" y="21" relative="1" as="geometry">
            <mxPoint x="570" y="1820" as="sourcePoint" />
            <mxPoint x="530" y="1380" as="targetPoint" />
            <Array as="points">
              <mxPoint x="560" y="1601" />
              <mxPoint x="560" y="1423" />
            </Array>
            <mxPoint as="offset" />
          </mxGeometry>
        </mxCell>
        <mxCell id="jVgVaskzTy7yyPrUn3Fr-109" value="1" style="endArrow=open;html=1;endSize=12;startArrow=diamondThin;startSize=14;startFill=0;edgeStyle=orthogonalEdgeStyle;align=left;verticalAlign=bottom;rounded=0;entryX=1;entryY=0.5;entryDx=0;entryDy=0;exitX=0;exitY=0.5;exitDx=0;exitDy=0;" edge="1" parent="1" source="jVgVaskzTy7yyPrUn3Fr-25" target="jVgVaskzTy7yyPrUn3Fr-13">
          <mxGeometry x="-0.2841" y="20" relative="1" as="geometry">
            <mxPoint x="150" y="1390" as="sourcePoint" />
            <mxPoint x="260" y="1380" as="targetPoint" />
            <mxPoint as="offset" />
          </mxGeometry>
        </mxCell>
        <mxCell id="jVgVaskzTy7yyPrUn3Fr-110" value="es enviado&amp;nbsp; a un &lt;br&gt;o&amp;nbsp; destinado a" style="edgeLabel;html=1;align=center;verticalAlign=middle;resizable=0;points=[];" connectable="0" vertex="1" parent="jVgVaskzTy7yyPrUn3Fr-109">
          <mxGeometry x="0.2397" y="4" relative="1" as="geometry">
            <mxPoint x="-4" as="offset" />
          </mxGeometry>
        </mxCell>
        <mxCell id="jVgVaskzTy7yyPrUn3Fr-111" value="Puerto" style="swimlane;html=1;fontStyle=1;align=center;verticalAlign=top;childLayout=stackLayout;horizontal=1;startSize=26;horizontalStack=0;resizeParent=1;resizeLast=0;collapsible=1;marginBottom=0;swimlaneFillColor=#ffffff;rounded=0;shadow=0;comic=0;labelBackgroundColor=none;strokeWidth=1;fillColor=none;fontFamily=Verdana;fontSize=12" vertex="1" parent="1">
          <mxGeometry x="-770" y="1180" width="260" height="120" as="geometry">
            <mxRectangle x="370" y="160" width="90" height="30" as="alternateBounds" />
          </mxGeometry>
        </mxCell>
        <mxCell id="jVgVaskzTy7yyPrUn3Fr-112" value="- negocio: Negocio" style="text;html=1;strokeColor=none;fillColor=none;align=left;verticalAlign=top;spacingLeft=4;spacingRight=4;whiteSpace=wrap;overflow=hidden;rotatable=0;points=[[0,0.5],[1,0.5]];portConstraint=eastwest;" vertex="1" parent="jVgVaskzTy7yyPrUn3Fr-111">
          <mxGeometry y="26" width="260" height="26" as="geometry" />
        </mxCell>
        <mxCell id="jVgVaskzTy7yyPrUn3Fr-113" value="" style="line;html=1;strokeWidth=1;fillColor=none;align=left;verticalAlign=middle;spacingTop=-1;spacingLeft=3;spacingRight=3;rotatable=0;labelPosition=right;points=[];portConstraint=eastwest;" vertex="1" parent="jVgVaskzTy7yyPrUn3Fr-111">
          <mxGeometry y="52" width="260" height="8" as="geometry" />
        </mxCell>
        <mxCell id="jVgVaskzTy7yyPrUn3Fr-114" value="+ CRUD ()" style="text;html=1;strokeColor=none;fillColor=none;align=left;verticalAlign=top;spacingLeft=4;spacingRight=4;whiteSpace=wrap;overflow=hidden;rotatable=0;points=[[0,0.5],[1,0.5]];portConstraint=eastwest;" vertex="1" parent="jVgVaskzTy7yyPrUn3Fr-111">
          <mxGeometry y="60" width="260" height="26" as="geometry" />
        </mxCell>
        <mxCell id="jVgVaskzTy7yyPrUn3Fr-115" value="+ CASOS DE USO ()" style="text;html=1;strokeColor=none;fillColor=none;align=left;verticalAlign=top;spacingLeft=4;spacingRight=4;whiteSpace=wrap;overflow=hidden;rotatable=0;points=[[0,0.5],[1,0.5]];portConstraint=eastwest;" vertex="1" parent="jVgVaskzTy7yyPrUn3Fr-111">
          <mxGeometry y="86" width="260" height="26" as="geometry" />
        </mxCell>
        <mxCell id="jVgVaskzTy7yyPrUn3Fr-116" value="1" style="endArrow=open;html=1;endSize=12;startArrow=diamondThin;startSize=14;startFill=1;edgeStyle=orthogonalEdgeStyle;align=left;verticalAlign=bottom;rounded=0;exitX=1;exitY=0.5;exitDx=0;exitDy=0;entryX=0.25;entryY=0;entryDx=0;entryDy=0;" edge="1" parent="1" source="jVgVaskzTy7yyPrUn3Fr-33" target="jVgVaskzTy7yyPrUn3Fr-8">
          <mxGeometry x="-0.8597" y="-23" relative="1" as="geometry">
            <mxPoint x="-100" y="1320" as="sourcePoint" />
            <mxPoint x="-5" y="1090" as="targetPoint" />
            <Array as="points">
              <mxPoint x="-117" y="1127" />
            </Array>
            <mxPoint as="offset" />
          </mxGeometry>
        </mxCell>
        <mxCell id="jVgVaskzTy7yyPrUn3Fr-117" value="trabajan" style="edgeLabel;html=1;align=center;verticalAlign=middle;resizable=0;points=[];" connectable="0" vertex="1" parent="jVgVaskzTy7yyPrUn3Fr-116">
          <mxGeometry x="-0.0365" y="2" relative="1" as="geometry">
            <mxPoint as="offset" />
          </mxGeometry>
        </mxCell>
        <mxCell id="jVgVaskzTy7yyPrUn3Fr-118" value="1" style="endArrow=open;html=1;endSize=12;startArrow=diamondThin;startSize=14;startFill=1;edgeStyle=orthogonalEdgeStyle;align=left;verticalAlign=bottom;rounded=0;exitX=0;exitY=0.5;exitDx=0;exitDy=0;" edge="1" parent="1" source="jVgVaskzTy7yyPrUn3Fr-10" target="jVgVaskzTy7yyPrUn3Fr-39">
          <mxGeometry x="-0.7861" y="-15" relative="1" as="geometry">
            <mxPoint x="-280" y="1430" as="sourcePoint" />
            <mxPoint x="-227" y="1663" as="targetPoint" />
            <Array as="points">
              <mxPoint x="-227" y="1425" />
            </Array>
            <mxPoint as="offset" />
          </mxGeometry>
        </mxCell>
        <mxCell id="jVgVaskzTy7yyPrUn3Fr-119" value="trabaja en" style="edgeLabel;html=1;align=center;verticalAlign=middle;resizable=0;points=[];" connectable="0" vertex="1" parent="jVgVaskzTy7yyPrUn3Fr-118">
          <mxGeometry x="0.3904" y="-2" relative="1" as="geometry">
            <mxPoint as="offset" />
          </mxGeometry>
        </mxCell>
      </root>
    </mxGraphModel>
  </diagram>
</mxfile>
